<svg width="512" height="512" viewBox="0 0 512 512" fill="none" xmlns="http://www.w3.org/2000/svg">
  <!-- Background -->
  <rect width="512" height="512" fill="#2d7a3c" rx="128"/>
  
  <!-- Leaf Icon -->
  <path d="M256 128C192 128 144 176 144 240C144 304 192 352 256 368C320 352 368 304 368 240C368 176 320 128 256 128Z" fill="#ffffff" opacity="0.9"/>
  <path d="M256 144C200 144 160 184 160 240C160 296 200 336 256 352C312 336 352 296 352 240C352 184 312 144 256 144Z" fill="#ffffff"/>
  <path d="M256 176L256 352" stroke="#2d7a3c" stroke-width="8" stroke-linecap="round"/>
  <path d="M256 224C232 208 216 208 200 224" stroke="#2d7a3c" stroke-width="6" stroke-linecap="round"/>
  <path d="M256 256C280 240 296 240 312 256" stroke="#2d7a3c" stroke-width="6" stroke-linecap="round"/>
  <path d="M256 288C232 272 216 272 200 288" stroke="#2d7a3c" stroke-width="6" stroke-linecap="round"/>
</svg>
